# xmcd
#
# Track frame offsets:
#	150
#	2693
#	16744
#	24227
#	36577
#	46340
#	58577
#	74134
#	86460
#	97001
#	112536
#	124820
#	140160
#
# Disc length: 1985 seconds
#
# Revision: 1
# Processed by: cddbd v1.5.1PL0 Copyright (c) Steve Scherf et al.
# Submitted via: CDex 1.50Beta5
#
DISCID=a907bf0d
DTITLE=さまざまなアーティスト - クリスマスシリーズ3 ケルト音楽 クリスマスの夜
DYEAR=1900
DGENRE=
TTITLE0=ウィ・ウィッシュ・ユー・ア・メリークリスマス
TTITLE1=オー・リトル・タウン・オブ・ベツレヘム&コネラマの子守唄
TTITLE2=もろびとこぞりて
TTITLE3=いざもろとも主を
TTITLE4=グッド・キング・ウェンセスラス
TTITLE5=あら野のはてに
TTITLE6=オー・ホーリー・ナイト
TTITLE7=ウェックフォード・キャロル
TTITLE8=きよしこの夜
TTITLE9=木枯らしの風
TTITLE10=ホワイル・シェバーズ・ワッチト・ゼア・フロックス・バイナイト
TTITLE11=アブェ・マリア
TTITLE12=ウィ・ウィッシュ・ユー・ア・メリークリスマス
EXTD=
EXTT0=
EXTT1=
EXTT2=
EXTT3=
EXTT4=
EXTT5=
EXTT6=
EXTT7=
EXTT8=
EXTT9=
EXTT10=
EXTT11=
EXTT12=
PLAYORDER=
